<svg width="1151" height="1151" xmlns="http://www.w3.org/2000/svg" clip-rule="evenodd">

 <g>
  <title>background</title>
  <rect fill="none" id="canvas_background" height="402" width="582" y="-1" x="-1"/>
 </g>
 <g>
  <title>Layer 1</title>
  <path fill="#ffffff" stroke="#ffffff" id="svg_2" fill-rule="nonzero" d="m637.223999,574.923706c0,163.669983 -131.780029,296.349976 -294.330017,296.349976c-162.549973,0 -294.339981,-132.679993 -294.339981,-296.349976c0,-163.670013 131.779999,-296.360016 294.339981,-296.360016c162.559998,0 294.330017,132.690002 294.330017,296.360016"/>
  <path fill="#ffffff" id="svg_4" fill-rule="nonzero" d="m960.113953,574.923706c0,154.059998 -65.890015,279 -147.169922,279c-81.280029,0 -147.170044,-124.940002 -147.170044,-279c0,-154.059998 65.880005,-279 147.160034,-279c81.279907,0 147.169922,124.899994 147.169922,279"/>
  <path fill="#ffffff" stroke="#ffffff" id="svg_6" fill-rule="nonzero" d="m1092.184082,574.923706c0,138 -23.170044,249.940002 -51.76001,249.940002c-28.590027,0 -51.750061,-111.910034 -51.750061,-249.940002c0,-138.029999 23.169922,-249.940002 51.750061,-249.940002c28.579956,0 51.76001,111.899994 51.76001,249.940002"/>
  <path id="svg_8" fill="none" fill-rule="nonzero" d="m1387.544067,-1.33631l-296.290039,0l0,0.25l-1041.190018,0l0,-0.25l-296.290009,0l0,1150.069953l119.510002,0l0,0.440063l1410.410088,0l0,-0.440063l103.849976,0l0,-1150.069953zm-296.290039,296.540015l0,557.670013l-1041.190018,0l0,-557.670013l1041.190018,0z"/>
 </g>
</svg>