<?xml version="1.0"?>
<svg xmlns="http://www.w3.org/2000/svg" xmlns:xlink="http://www.w3.org/1999/xlink" xmlns:svgjs="http://svgjs.com/svgjs" version="1.1" width="512" height="512" x="0" y="0" viewBox="0 0 512 512" style="enable-background:new 0 0 512 512" xml:space="preserve" class=""><g><path xmlns="http://www.w3.org/2000/svg" d="m370 70h-40l-260 366v46c0 11.050781 8.949219 20 20 20h280c11.050781 0 20-8.949219 20-20v-392c0-11.050781-8.949219-20-20-20zm0 0" fill="#ff7d7d" data-original="#ffd86e" style="" class=""/><path xmlns="http://www.w3.org/2000/svg" d="m310 10h-171.71875c-2.882812 0-5.710938.621094-8.28125 1.800781l-118.199219 118.199219c-1.179687 2.570312-1.800781 5.398438-1.800781 8.28125v277.71875c0 11.050781 8.949219 20 20 20h280c11.050781 0 20-8.949219 20-20 0-14.519531 0-367.183594 0-386 0-11.050781-8.949219-20-20-20zm0 0" fill="#e9eef0" data-original="#e9eef0" style="" class=""/><path xmlns="http://www.w3.org/2000/svg" d="m190 70h80v60h-80zm0 0" fill="#e9eef0" data-original="#e9eef0" style="" class=""/><path xmlns="http://www.w3.org/2000/svg" d="m130 11.800781v118.199219h-118.199219c.980469-2.171875 2.347657-4.148438 4.058594-5.859375l108.28125-108.28125c1.710937-1.710937 3.6875-3.078125 5.859375-4.058594zm0 0" fill="#ff7d7d" data-original="#ffd86e" style="" class=""/><path xmlns="http://www.w3.org/2000/svg" d="m70 200c5.519531 0 10-4.480469 10-10s-4.480469-10-10-10-10 4.480469-10 10 4.480469 10 10 10zm0 0" fill="#ff5352" data-original="#000000" style="" class=""/><path xmlns="http://www.w3.org/2000/svg" d="m370 60h-30v-30c0-16.542969-13.457031-30-30-30h-171.71875c-7.949219 0-15.625 3.203125-21.210938 8.789062l-108.28125 108.277344c-5.511718 5.511719-8.789062 13.167969-8.789062 21.214844v277.71875c0 16.542969 13.457031 30 30 30h30v36c0 16.542969 13.457031 30 30 30h280c16.542969 0 30-13.457031 30-30v-392c0-16.542969-13.457031-30-30-30zm-250-25.855469v85.855469h-85.859375zm-90 391.855469c-5.515625 0-10-4.484375-10-10v-276h110c5.523438 0 10-4.476562 10-10v-110h170c5.515625 0 10 4.484375 10 10v386c0 5.515625-4.484375 10-10 10zm350 56c0 5.515625-4.484375 10-10 10h-280c-5.515625 0-10-4.484375-10-10v-36h230c16.542969 0 30-13.457031 30-30v-336h30c5.515625 0 10 4.484375 10 10zm0 0" fill="#ff5352" data-original="#000000" style="" class=""/><path xmlns="http://www.w3.org/2000/svg" d="m270 60h-80c-5.523438 0-10 4.476562-10 10v60c0 5.523438 4.476562 10 10 10h80c5.523438 0 10-4.476562 10-10v-60c0-5.523438-4.476562-10-10-10zm-10 60h-60v-40h60zm0 0" fill="#ff5352" data-original="#000000" style="" class=""/><path xmlns="http://www.w3.org/2000/svg" d="m270 180h-160c-5.523438 0-10 4.476562-10 10s4.476562 10 10 10h160c5.523438 0 10-4.476562 10-10s-4.476562-10-10-10zm0 0" fill="#ff5352" data-original="#000000" style="" class=""/><path xmlns="http://www.w3.org/2000/svg" d="m270 240h-200c-5.523438 0-10 4.476562-10 10s4.476562 10 10 10h200c5.523438 0 10-4.476562 10-10s-4.476562-10-10-10zm0 0" fill="#ff5352" data-original="#000000" style="" class=""/><path xmlns="http://www.w3.org/2000/svg" d="m270 300h-200c-5.523438 0-10 4.476562-10 10s4.476562 10 10 10h200c5.523438 0 10-4.476562 10-10s-4.476562-10-10-10zm0 0" fill="#ff5352" data-original="#000000" style="" class=""/><path xmlns="http://www.w3.org/2000/svg" d="m270 360h-200c-5.523438 0-10 4.476562-10 10s4.476562 10 10 10h200c5.523438 0 10-4.476562 10-10s-4.476562-10-10-10zm0 0" fill="#ff5352" data-original="#000000" style="" class=""/></g></svg>
