<?xml version="1.0"?>
<svg xmlns="http://www.w3.org/2000/svg" xmlns:xlink="http://www.w3.org/1999/xlink" xmlns:svgjs="http://svgjs.com/svgjs" version="1.1" width="512" height="512" x="0" y="0" viewBox="0 0 56 56" style="enable-background:new 0 0 512 512" xml:space="preserve" class=""><g><g xmlns="http://www.w3.org/2000/svg" id="Page-1" fill="none" fill-rule="evenodd"><g id="066---Contact" fill="rgb(0,0,0)" fill-rule="nonzero" transform="translate(-1)"><path id="Shape" d="m56.877 11.334-17.627 16.366 17.639 16.929c.0706429-.202318.1081261-.4147227.111-.629v-32c-.0021045-.2274496-.0437238-.4528029-.123-.666zm-1.877 23.666c0 .5522847-.4477153 1-1 1s-1-.4477153-1-1v-14c0-.5522847.4477153-1 1-1s1 .4477153 1 1z" fill="#ff754a" data-original="#000000" style="" class=""/><path id="Shape" d="m27.541 41.507c-.2282589-.7224957-.9940768-1.128112-1.72-.911l-1.313.387.389 1.288c.1110925.3441814.0276867.721526-.2181204.9868207-.245807.2652946-.6157051.3771916-.9673465.2926298-.3516414-.0845617-.6302209-.352403-.7285331-.7004505l-.393-1.3-5.271 1.55c-.7198214.2175852-1.5009773.0473575-2.065-.45-3.316924-3.0995241-5.72011066-7.0494941-6.948-11.42-1.3981464-4.305929-1.5798262-8.9143668-.525-13.317.20435246-.7226692.76613691-1.289365 1.487-1.5l5.258-1.55-.389-1.288c-.1437491-.5231156.1558223-1.0654396.6751651-1.2222735.5193427-.1568339 1.069015.1290309 1.2388349.6442735l.393 1.3 1.327-.391c.350755-.1017616.6461017-.3398398.82-.661.1683588-.3107926.2044056-.6763076.1-1.014l-3.4-11.26c-.2264689-.72348122-.9931619-1.1297973-1.719-.911l-1.314.387 2.431 8.044c.159423.52851781-.1395827 1.08624407-.668 1.246-.0935751.02899504-.191037.04349629-.289.043-.4408484-.00014509-.8295948-.28896295-.957-.711l-2.434-8.059-1.861.548c-.2280503.0685883-.43465454.19461688-.6.366l-5.736 5.94c-.17510327.18286783-.29623295.41059163-.35.658-.559 2.578-2.094 11.945 1.59 24.147s10.174 19.207 12.074 21.062c.1834559.1807517.4132155.3073963.664.366l8.093 1.867c.2358983.0545304.4819064.0469503.714-.022l1.846-.544-2.431-8.044c-.1110925-.3441814-.0276867-.721526.2181204-.9868207.245807-.2652946.6157051-.3771916.9673465-.2926298.3516414.0845617.6302209.352403.7285331.7004505l2.435 8.058 1.326-.391c.3510016-.1007094.6466019-.3386316.82-.66.1683588-.3107926.2044056-.6763076.1-1.014z" fill="#ff754a" data-original="#000000" style="" class=""/><path id="Shape" d="m18.336 15.822-1.061.313 14.4 13.331c.7671063.7114344 1.9528937.7114344 2.72 0l20.943-19.432c-.1114888-.020966-.2245691-.032341-.338-.034h-34.89l.5 1.65c.2594114.8477741.1667886 1.7642713-.257 2.543-.426532.7916328-1.1533318 1.3786218-2.017 1.629zm6.664-3.822h16c.5522847 0 1 .4477153 1 1s-.4477153 1-1 1h-16c-.5522847 0-1-.4477153-1-1s.4477153-1 1-1z" fill="#ff754a" data-original="#000000" style="" class=""/><path id="Shape" d="m9.834 18.328c-.05646346.0144549-.10235374.055495-.123.11-.95871012 4.0411587-.78256662 8.2686028.509 12.216.9143592 3.1327437 2.4494662 6.0495831 4.514 8.577l12.051-11.57-11.744-10.868z" fill="#ff754a" data-original="#000000" style="" class=""/><path id="Shape" d="m35.761 30.933c-1.5371445 1.4173437-3.9048555 1.4173437-5.442 0l-2.064-1.911-12.164 11.678c.18.174.345.327.485.45.0508466.0384162.116957.0503012.178.032l8.5-2.506c1.7804728-.5290559 3.6546932.475437 4.2 2.251l1.533 5.073h24.013c.1302992-.0002468.2602582-.0133097.388-.039l-17.607-16.9z" fill="#ff754a" data-original="#000000" style="" class=""/></g></g></g></svg>
